<mxfile host="app.diagrams.net" modified="2022-11-17T13:39:02.216Z" agent="5.0 (Windows NT 10.0; Win64; x64) AppleWebKit/537.36 (KHTML, like Gecko) Chrome/107.0.0.0 Safari/537.36" etag="DKng3h6c9_mq-AJZODFb" version="20.5.3" type="github">
  <diagram id="C5RBs43oDa-KdzZeNtuy" name="Page-1">
    <mxGraphModel dx="2162" dy="708" grid="1" gridSize="10" guides="1" tooltips="1" connect="1" arrows="1" fold="1" page="1" pageScale="1" pageWidth="827" pageHeight="1169" math="0" shadow="0">
      <root>
        <mxCell id="WIyWlLk6GJQsqaUBKTNV-0" />
        <mxCell id="WIyWlLk6GJQsqaUBKTNV-1" parent="WIyWlLk6GJQsqaUBKTNV-0" />
        <mxCell id="2YoyEx3AYOhNiHGTD30S-53" value="" style="edgeStyle=orthogonalEdgeStyle;rounded=0;orthogonalLoop=1;jettySize=auto;html=1;fontSize=10;fontColor=#000000;" edge="1" parent="WIyWlLk6GJQsqaUBKTNV-1" source="2YoyEx3AYOhNiHGTD30S-31" target="2YoyEx3AYOhNiHGTD30S-52">
          <mxGeometry relative="1" as="geometry" />
        </mxCell>
        <mxCell id="2YoyEx3AYOhNiHGTD30S-31" value="Start" style="strokeWidth=2;html=1;shape=mxgraph.flowchart.start_1;whiteSpace=wrap;labelBackgroundColor=#FFFFFF;fontSize=9;" vertex="1" parent="WIyWlLk6GJQsqaUBKTNV-1">
          <mxGeometry x="190" y="510" width="100" height="60" as="geometry" />
        </mxCell>
        <mxCell id="2YoyEx3AYOhNiHGTD30S-35" value="" style="edgeStyle=orthogonalEdgeStyle;rounded=0;orthogonalLoop=1;jettySize=auto;html=1;fontSize=9;" edge="1" parent="WIyWlLk6GJQsqaUBKTNV-1" source="2YoyEx3AYOhNiHGTD30S-32" target="2YoyEx3AYOhNiHGTD30S-33">
          <mxGeometry relative="1" as="geometry" />
        </mxCell>
        <mxCell id="2YoyEx3AYOhNiHGTD30S-37" value="" style="edgeStyle=orthogonalEdgeStyle;rounded=0;orthogonalLoop=1;jettySize=auto;html=1;fontSize=9;entryX=0.5;entryY=0;entryDx=0;entryDy=0;" edge="1" parent="WIyWlLk6GJQsqaUBKTNV-1" source="2YoyEx3AYOhNiHGTD30S-32" target="2YoyEx3AYOhNiHGTD30S-41">
          <mxGeometry relative="1" as="geometry">
            <mxPoint x="240.0000000000001" y="880" as="targetPoint" />
          </mxGeometry>
        </mxCell>
        <mxCell id="2YoyEx3AYOhNiHGTD30S-32" value="purchase details&lt;br&gt;&amp;amp;&lt;br&gt;flow vaules" style="shape=parallelogram;html=1;strokeWidth=2;perimeter=parallelogramPerimeter;whiteSpace=wrap;rounded=1;arcSize=12;size=0.23;labelBackgroundColor=#FFFFFF;fontSize=9;" vertex="1" parent="WIyWlLk6GJQsqaUBKTNV-1">
          <mxGeometry x="190" y="760" width="100" height="60" as="geometry" />
        </mxCell>
        <mxCell id="2YoyEx3AYOhNiHGTD30S-33" value="dynamoDB" style="strokeWidth=2;html=1;shape=mxgraph.flowchart.database;whiteSpace=wrap;labelBackgroundColor=#FFFFFF;fontSize=9;" vertex="1" parent="WIyWlLk6GJQsqaUBKTNV-1">
          <mxGeometry x="445" y="760" width="60" height="60" as="geometry" />
        </mxCell>
        <mxCell id="2YoyEx3AYOhNiHGTD30S-39" value="" style="edgeStyle=orthogonalEdgeStyle;rounded=0;orthogonalLoop=1;jettySize=auto;html=1;fontSize=9;" edge="1" parent="WIyWlLk6GJQsqaUBKTNV-1" target="2YoyEx3AYOhNiHGTD30S-38">
          <mxGeometry relative="1" as="geometry">
            <mxPoint x="240.0000000000001" y="940" as="sourcePoint" />
          </mxGeometry>
        </mxCell>
        <mxCell id="2YoyEx3AYOhNiHGTD30S-43" value="" style="edgeStyle=orthogonalEdgeStyle;rounded=0;orthogonalLoop=1;jettySize=auto;html=1;fontSize=10;" edge="1" parent="WIyWlLk6GJQsqaUBKTNV-1" source="2YoyEx3AYOhNiHGTD30S-38" target="2YoyEx3AYOhNiHGTD30S-42">
          <mxGeometry relative="1" as="geometry" />
        </mxCell>
        <mxCell id="2YoyEx3AYOhNiHGTD30S-57" value="" style="edgeStyle=orthogonalEdgeStyle;rounded=0;orthogonalLoop=1;jettySize=auto;html=1;fontSize=10;fontColor=#000000;" edge="1" parent="WIyWlLk6GJQsqaUBKTNV-1" source="2YoyEx3AYOhNiHGTD30S-38" target="2YoyEx3AYOhNiHGTD30S-46">
          <mxGeometry relative="1" as="geometry" />
        </mxCell>
        <mxCell id="2YoyEx3AYOhNiHGTD30S-38" value="&lt;font style=&quot;font-size: 10px;&quot;&gt;Is valid user?&lt;/font&gt;" style="strokeWidth=2;html=1;shape=mxgraph.flowchart.decision;whiteSpace=wrap;labelBackgroundColor=#FFFFFF;fontSize=9;" vertex="1" parent="WIyWlLk6GJQsqaUBKTNV-1">
          <mxGeometry x="190" y="1100" width="100" height="100" as="geometry" />
        </mxCell>
        <mxCell id="2YoyEx3AYOhNiHGTD30S-41" value="Microsoft Login Page" style="rounded=1;whiteSpace=wrap;html=1;absoluteArcSize=1;arcSize=14;strokeWidth=2;labelBackgroundColor=#FFFFFF;fontSize=10;" vertex="1" parent="WIyWlLk6GJQsqaUBKTNV-1">
          <mxGeometry x="140" y="920" width="200" height="60" as="geometry" />
        </mxCell>
        <mxCell id="2YoyEx3AYOhNiHGTD30S-42" value="Landing Page Based&lt;br&gt;On&lt;br&gt;Offer" style="rounded=1;whiteSpace=wrap;html=1;absoluteArcSize=1;arcSize=14;strokeWidth=2;labelBackgroundColor=#FFFFFF;fontSize=10;" vertex="1" parent="WIyWlLk6GJQsqaUBKTNV-1">
          <mxGeometry x="190" y="1360" width="100" height="100" as="geometry" />
        </mxCell>
        <mxCell id="2YoyEx3AYOhNiHGTD30S-44" value="Redirects to" style="text;html=1;align=center;verticalAlign=middle;resizable=0;points=[];autosize=1;strokeColor=none;fillColor=none;fontSize=10;" vertex="1" parent="WIyWlLk6GJQsqaUBKTNV-1">
          <mxGeometry x="240" y="860" width="80" height="30" as="geometry" />
        </mxCell>
        <mxCell id="2YoyEx3AYOhNiHGTD30S-45" value="save to" style="text;html=1;align=center;verticalAlign=middle;resizable=0;points=[];autosize=1;strokeColor=none;fillColor=none;fontSize=10;" vertex="1" parent="WIyWlLk6GJQsqaUBKTNV-1">
          <mxGeometry x="330" y="755" width="60" height="30" as="geometry" />
        </mxCell>
        <mxCell id="2YoyEx3AYOhNiHGTD30S-46" value="Error Page" style="rounded=1;whiteSpace=wrap;html=1;absoluteArcSize=1;arcSize=14;strokeWidth=2;labelBackgroundColor=#FFFFFF;fontSize=10;" vertex="1" parent="WIyWlLk6GJQsqaUBKTNV-1">
          <mxGeometry x="-20" y="1129" width="100" height="40" as="geometry" />
        </mxCell>
        <mxCell id="2YoyEx3AYOhNiHGTD30S-48" value="No" style="text;html=1;align=center;verticalAlign=middle;resizable=0;points=[];autosize=1;strokeColor=none;fillColor=none;fontSize=10;" vertex="1" parent="WIyWlLk6GJQsqaUBKTNV-1">
          <mxGeometry x="140" y="1120" width="40" height="30" as="geometry" />
        </mxCell>
        <mxCell id="2YoyEx3AYOhNiHGTD30S-49" value="yes" style="text;html=1;align=center;verticalAlign=middle;resizable=0;points=[];autosize=1;strokeColor=none;fillColor=none;fontSize=10;" vertex="1" parent="WIyWlLk6GJQsqaUBKTNV-1">
          <mxGeometry x="240" y="1270" width="40" height="30" as="geometry" />
        </mxCell>
        <mxCell id="2YoyEx3AYOhNiHGTD30S-54" value="" style="edgeStyle=orthogonalEdgeStyle;rounded=0;orthogonalLoop=1;jettySize=auto;html=1;fontSize=10;fontColor=#000000;" edge="1" parent="WIyWlLk6GJQsqaUBKTNV-1" source="2YoyEx3AYOhNiHGTD30S-52" target="2YoyEx3AYOhNiHGTD30S-32">
          <mxGeometry relative="1" as="geometry" />
        </mxCell>
        <mxCell id="2YoyEx3AYOhNiHGTD30S-52" value="User clicks on&lt;br&gt;Config Account Now&lt;br&gt;button&lt;br&gt;" style="rounded=1;whiteSpace=wrap;html=1;absoluteArcSize=1;arcSize=14;strokeWidth=2;labelBackgroundColor=#FFFFFF;fontSize=10;" vertex="1" parent="WIyWlLk6GJQsqaUBKTNV-1">
          <mxGeometry x="150" y="640" width="180" height="60" as="geometry" />
        </mxCell>
        <mxCell id="2YoyEx3AYOhNiHGTD30S-56" value="--&amp;gt; Checking valid user as follows:&lt;br&gt;&amp;nbsp;-&amp;gt; User email should match with any one following two emails&lt;br&gt;1. Beneficiary Email&lt;br&gt;2. Purchaser Email" style="whiteSpace=wrap;html=1;shape=mxgraph.basic.roundRectCallout;dx=30;dy=15;size=5;boundedLbl=1;fontSize=10;align=left;strokeWidth=1;" vertex="1" parent="WIyWlLk6GJQsqaUBKTNV-1">
          <mxGeometry x="280" y="1027" width="234" height="102" as="geometry" />
        </mxCell>
        <mxCell id="2YoyEx3AYOhNiHGTD30S-59" value="After user successful login:&lt;br&gt;1. fetching details from DB as per functionality&lt;br&gt;2. getting access tokens for(user details &amp;amp; subscription details)&lt;br&gt;Landing page will be shown based on offer&lt;br&gt;with pre populated user &amp;amp; subscription details" style="whiteSpace=wrap;html=1;shape=mxgraph.basic.roundRectCallout;dx=30;dy=15;size=5;boundedLbl=1;fontSize=10;align=left;strokeWidth=1;" vertex="1" parent="WIyWlLk6GJQsqaUBKTNV-1">
          <mxGeometry x="290" y="1258" width="234" height="102" as="geometry" />
        </mxCell>
        <mxCell id="2YoyEx3AYOhNiHGTD30S-61" value="" style="edgeStyle=orthogonalEdgeStyle;rounded=0;orthogonalLoop=1;jettySize=auto;html=1;fontSize=10;exitX=0.5;exitY=1;exitDx=0;exitDy=0;" edge="1" parent="WIyWlLk6GJQsqaUBKTNV-1" source="2YoyEx3AYOhNiHGTD30S-42">
          <mxGeometry relative="1" as="geometry">
            <mxPoint x="250" y="1210" as="sourcePoint" />
            <mxPoint x="240" y="1591.8181818181818" as="targetPoint" />
          </mxGeometry>
        </mxCell>
        <mxCell id="2YoyEx3AYOhNiHGTD30S-62" value="Submit&amp;nbsp;" style="text;html=1;align=center;verticalAlign=middle;resizable=0;points=[];autosize=1;strokeColor=none;fillColor=none;fontSize=10;fontColor=#000000;" vertex="1" parent="WIyWlLk6GJQsqaUBKTNV-1">
          <mxGeometry x="245" y="1510" width="60" height="30" as="geometry" />
        </mxCell>
      </root>
    </mxGraphModel>
  </diagram>
</mxfile>
